<svg width="760" height="520" viewBox="0 0 760 520" fill="none" xmlns="http://www.w3.org/2000/svg">
  <defs>
    <linearGradient id="panel" x1="0" y1="0" x2="760" y2="520" gradientUnits="userSpaceOnUse">
      <stop stop-color="#0B1222" />
      <stop offset="1" stop-color="#1E1B4B" />
    </linearGradient>
    <linearGradient id="accent" x1="0" y1="0" x2="1" y2="1">
      <stop stop-color="#22D3EE" />
      <stop offset="1" stop-color="#6D28D9" />
    </linearGradient>
  </defs>
  <rect width="760" height="520" rx="28" fill="url(#panel)" />
  <rect x="48" y="48" width="664" height="424" rx="20" fill="#0F172A" stroke="#1F2A44" />
  <rect x="90" y="92" width="240" height="16" rx="8" fill="#334155" />
  <rect x="90" y="132" width="320" height="10" rx="5" fill="#1E293B" />
  <rect x="110" y="200" width="80" height="180" rx="12" fill="#111C33" />
  <rect x="210" y="240" width="80" height="140" rx="12" fill="#111C33" />
  <rect x="310" y="170" width="80" height="210" rx="12" fill="#111C33" />
  <rect x="410" y="210" width="80" height="170" rx="12" fill="#111C33" />
  <rect x="510" y="150" width="80" height="230" rx="12" fill="url(#accent)" />
  <rect x="110" y="400" width="480" height="12" rx="6" fill="#1E293B" />
  <circle cx="604" cy="96" r="12" fill="#22D3EE" />
  <circle cx="636" cy="96" r="8" fill="#6D28D9" />
</svg>
