<svg width="960" height="640" viewBox="0 0 960 640" fill="none" xmlns="http://www.w3.org/2000/svg">
  <defs>
    <linearGradient id="bg" x1="0" y1="0" x2="960" y2="640" gradientUnits="userSpaceOnUse">
      <stop stop-color="#0B1222" />
      <stop offset="1" stop-color="#1E1B4B" />
    </linearGradient>
    <linearGradient id="accent" x1="0" y1="0" x2="1" y2="1">
      <stop stop-color="#22D3EE" />
      <stop offset="1" stop-color="#6D28D9" />
    </linearGradient>
  </defs>
  <rect width="960" height="640" rx="32" fill="url(#bg)" />
  <rect x="48" y="48" width="864" height="544" rx="24" fill="#0F172A" stroke="#1F2A44" />
  <rect x="80" y="88" width="220" height="18" rx="9" fill="#334155" />
  <rect x="80" y="128" width="380" height="12" rx="6" fill="#1E293B" />
  <rect x="80" y="170" width="520" height="10" rx="5" fill="#1E293B" />
  <rect x="80" y="220" width="360" height="220" rx="16" fill="#111C33" stroke="#1F2A44" />
  <rect x="472" y="220" width="360" height="140" rx="16" fill="#111C33" stroke="#1F2A44" />
  <rect x="472" y="380" width="360" height="120" rx="16" fill="#111C33" stroke="#1F2A44" />
  <rect x="112" y="252" width="160" height="12" rx="6" fill="#475569" />
  <rect x="112" y="280" width="240" height="8" rx="4" fill="#1E293B" />
  <rect x="112" y="308" width="220" height="8" rx="4" fill="#1E293B" />
  <rect x="112" y="336" width="180" height="8" rx="4" fill="#1E293B" />
  <rect x="504" y="252" width="200" height="12" rx="6" fill="#475569" />
  <rect x="504" y="280" width="300" height="8" rx="4" fill="#1E293B" />
  <rect x="504" y="308" width="240" height="8" rx="4" fill="#1E293B" />
  <rect x="504" y="412" width="200" height="12" rx="6" fill="#475569" />
  <rect x="504" y="440" width="300" height="8" rx="4" fill="#1E293B" />
  <rect x="504" y="468" width="240" height="8" rx="4" fill="#1E293B" />
  <circle cx="820" cy="104" r="18" fill="url(#accent)" />
  <circle cx="780" cy="104" r="10" fill="#22D3EE" />
  <rect x="80" y="490" width="320" height="16" rx="8" fill="url(#accent)" />
</svg>
