<svg width="760" height="520" viewBox="0 0 760 520" fill="none" xmlns="http://www.w3.org/2000/svg">
  <defs>
    <linearGradient id="panel" x1="0" y1="0" x2="760" y2="520" gradientUnits="userSpaceOnUse">
      <stop stop-color="#0B1222" />
      <stop offset="1" stop-color="#1E1B4B" />
    </linearGradient>
    <linearGradient id="bubble" x1="0" y1="0" x2="1" y2="1">
      <stop stop-color="#22D3EE" />
      <stop offset="1" stop-color="#6D28D9" />
    </linearGradient>
  </defs>
  <rect width="760" height="520" rx="28" fill="url(#panel)" />
  <rect x="48" y="48" width="664" height="424" rx="20" fill="#0F172A" stroke="#1F2A44" />
  <rect x="90" y="96" width="220" height="14" rx="7" fill="#334155" />
  <rect x="90" y="140" width="280" height="44" rx="16" fill="#111C33" />
  <rect x="120" y="156" width="200" height="12" rx="6" fill="#475569" />
  <rect x="330" y="210" width="260" height="44" rx="16" fill="url(#bubble)" />
  <rect x="350" y="226" width="200" height="12" rx="6" fill="#F8FAFC" />
  <rect x="90" y="280" width="320" height="44" rx="16" fill="#111C33" />
  <rect x="120" y="296" width="220" height="12" rx="6" fill="#475569" />
  <rect x="330" y="350" width="300" height="44" rx="16" fill="url(#bubble)" />
  <rect x="350" y="366" width="220" height="12" rx="6" fill="#F8FAFC" />
  <circle cx="632" cy="96" r="12" fill="#22D3EE" />
  <circle cx="666" cy="96" r="8" fill="#6D28D9" />
</svg>
